<svg xmlns="http://www.w3.org/2000/svg" viewBox="0 0 800 1050" style="font-family:Segoe UI,sans-serif">
  <rect width="800" height="1050" fill="white" rx="8"/>
  <text x="400" y="35" text-anchor="middle" font-size="18" font-weight="700" fill="#0a2540">Wireframe — Courses Page &amp; Contact Page</text>
  
  <text x="200" y="65" text-anchor="middle" font-size="14" font-weight="700" fill="#0056d2">courses.html — Courses Page</text>
  <line x1="30" y1="75" x2="370" y2="75" stroke="#0056d2" stroke-width="1"/>

  <!-- Navbar -->
  <rect x="30" y="85" width="340" height="45" rx="6" fill="#e8f0fe" stroke="#0056d2" stroke-width="1"/>
  <rect x="40" y="93" width="30" height="28" rx="3" fill="#0056d2"/>
  <text x="80" y="112" font-size="10" font-weight="700" fill="#0056d2">Lumina</text>
  <text x="200" y="112" font-size="9" fill="#666">Home About Courses Gallery</text>

  <!-- Header -->
  <text x="200" y="165" text-anchor="middle" font-size="14" font-weight="700" fill="#0a2540">Our Training Programs</text>
  <text x="200" y="182" text-anchor="middle" font-size="9" fill="#888">Flexible learning — online, instructor-led, self-paced</text>

  <!-- Course cards grid 3x2 -->
  <!-- Row 1 -->
  <rect x="35" y="195" width="100" height="130" rx="8" fill="white" stroke="#e0e0e0"/>
  <rect x="35" y="195" width="100" height="55" rx="8" fill="#1a3a5c"/>
  <rect x="40" y="200" width="50" height="16" rx="8" fill="#0056d2"/> <text x="65" y="212" text-anchor="middle" font-size="6" fill="white">Bestseller</text>
  <text x="85" y="268" text-anchor="middle" font-size="7" font-weight="600">Cybersecurity</text>
  <text x="85" y="278" text-anchor="middle" font-size="7" font-weight="600">Fundamentals</text>
  <text x="85" y="290" font-size="6" fill="#e59819">★★★★½</text> <text x="105" y="290" font-size="6" font-weight="700">4.7</text>
  <text x="42" y="310" font-size="6" fill="#888">🕐 8 wks</text> <text x="82" y="310" font-size="6" fill="#888">📶 Beg</text>

  <rect x="145" y="195" width="100" height="130" rx="8" fill="white" stroke="#e0e0e0"/>
  <rect x="145" y="195" width="100" height="55" rx="8" fill="#1a3a5c"/>
  <rect x="150" y="200" width="45" height="16" rx="8" fill="#0056d2"/> <text x="172" y="212" text-anchor="middle" font-size="6" fill="white">Popular</text>
  <text x="195" y="268" text-anchor="middle" font-size="7" font-weight="600">Ethical Hacking</text>
  <text x="195" y="278" text-anchor="middle" font-size="7" fill="#888">(CEH Track)</text>
  <text x="195" y="290" font-size="6" fill="#e59819">★★★★★</text> <text x="215" y="290" font-size="6" font-weight="700">4.9</text>
  <text x="152" y="310" font-size="6" fill="#888">🕐 12 wks</text> <text x="192" y="310" font-size="6" fill="#888">📶 Int</text>

  <rect x="255" y="195" width="100" height="130" rx="8" fill="white" stroke="#e0e0e0"/>
  <rect x="255" y="195" width="100" height="55" rx="8" fill="#1a3a5c"/>
  <rect x="260" y="200" width="45" height="16" rx="8" fill="#0056d2"/> <text x="282" y="212" text-anchor="middle" font-size="6" fill="white">CCNA</text>
  <text x="305" y="268" text-anchor="middle" font-size="7" font-weight="600">Network Admin</text>
  <text x="305" y="278" text-anchor="middle" font-size="7" font-weight="600">&amp; CCNA</text>
  <text x="305" y="290" font-size="6" fill="#e59819">★★★★½</text> <text x="325" y="290" font-size="6" font-weight="700">4.5</text>
  <text x="262" y="310" font-size="6" fill="#888">🕐 10 wks</text> <text x="302" y="310" font-size="6" fill="#888">📶 Int</text>

  <!-- Row 2 -->
  <rect x="35" y="340" width="100" height="130" rx="8" fill="white" stroke="#e0e0e0"/>
  <rect x="35" y="340" width="100" height="55" rx="8" fill="#1a3a5c"/>
  <rect x="40" y="345" width="40" height="16" rx="8" fill="#0056d2"/> <text x="60" y="357" text-anchor="middle" font-size="6" fill="white">New</text>
  <text x="85" y="413" text-anchor="middle" font-size="7" font-weight="600">Cloud Computing</text>
  <text x="85" y="423" text-anchor="middle" font-size="7" fill="#888">(AWS/Azure)</text>
  <text x="85" y="435" font-size="6" fill="#e59819">★★★★½</text> <text x="105" y="435" font-size="6" font-weight="700">4.6</text>
  <text x="42" y="455" font-size="6" fill="#888">🕐 6 wks</text> <text x="82" y="455" font-size="6" fill="#888">📶 Beg</text>

  <rect x="145" y="340" width="100" height="130" rx="8" fill="white" stroke="#e0e0e0"/>
  <rect x="145" y="340" width="100" height="55" rx="8" fill="#1a3a5c"/>
  <rect x="150" y="345" width="50" height="16" rx="8" fill="#0056d2"/> <text x="175" y="357" text-anchor="middle" font-size="6" fill="white">Job Ready</text>
  <text x="195" y="413" text-anchor="middle" font-size="7" font-weight="600">IT Support</text>
  <text x="195" y="423" text-anchor="middle" font-size="7" font-weight="600">Fundamentals</text>
  <text x="195" y="435" font-size="6" fill="#e59819">★★★★★</text> <text x="215" y="435" font-size="6" font-weight="700">4.8</text>
  <text x="152" y="455" font-size="6" fill="#888">🕐 4 wks</text> <text x="192" y="455" font-size="6" fill="#888">📶 Beg</text>

  <rect x="255" y="340" width="100" height="130" rx="8" fill="white" stroke="#e0e0e0"/>
  <rect x="255" y="340" width="100" height="55" rx="8" fill="#1a3a5c"/>
  <rect x="260" y="345" width="50" height="16" rx="8" fill="#0056d2"/> <text x="285" y="357" text-anchor="middle" font-size="6" fill="white">Exam Prep</text>
  <text x="305" y="413" text-anchor="middle" font-size="7" font-weight="600">CompTIA</text>
  <text x="305" y="423" text-anchor="middle" font-size="7" font-weight="600">Security+ Prep</text>
  <text x="305" y="435" font-size="6" fill="#e59819">★★★★½</text> <text x="325" y="435" font-size="6" font-weight="700">4.7</text>
  <text x="262" y="455" font-size="6" fill="#888">🕐 Self-paced</text> <text x="302" y="465" font-size="6" fill="#888">📶 All</text>

  <!-- Footer -->
  <rect x="30" y="495" width="340" height="70" rx="6" fill="#0a2540"/>
  <text x="200" y="520" text-anchor="middle" font-size="9" fill="#aaa">© 2026 Lumina Academy. All rights reserved.</text>
  <text x="200" y="540" text-anchor="middle" font-size="8" fill="#aaa">Bridging the skills gap</text>

  <!-- ==================== CONTACT PAGE ==================== -->
  <text x="600" y="65" text-anchor="middle" font-size="14" font-weight="700" fill="#0056d2">contact.html — Contact Page</text>
  <line x1="430" y1="75" x2="770" y2="75" stroke="#0056d2" stroke-width="1"/>

  <!-- Navbar -->
  <rect x="430" y="85" width="340" height="45" rx="6" fill="#e8f0fe" stroke="#0056d2" stroke-width="1"/>
  <rect x="440" y="93" width="30" height="28" rx="3" fill="#0056d2"/>
  <text x="480" y="112" font-size="10" font-weight="700" fill="#0056d2">Lumina</text>
  <text x="600" y="112" font-size="9" fill="#666">Home About Courses Gallery</text>

  <!-- Header -->
  <text x="600" y="165" text-anchor="middle" font-size="14" font-weight="700" fill="#0a2540">Get In Touch</text>
  <text x="600" y="182" text-anchor="middle" font-size="9" fill="#888">Have questions? We would love to hear from you</text>

  <!-- Two column layout -->
  <!-- Left: Contact Info -->
  <rect x="435" y="195" width="160" height="295" rx="10" fill="#e8f0fe"/>
  <text x="515" y="220" text-anchor="middle" font-size="10" font-weight="700" fill="#0a2540">Contact Information</text>
  <text x="448" y="245" font-size="8" fill="#0056d2">👤</text> <text x="460" y="245" font-size="8" font-weight="600">Owner</text> <text x="460" y="256" font-size="7" fill="#666">Miss Olorato Mothomedi</text>
  <text x="448" y="275" font-size="8" fill="#0056d2">✉</text> <text x="460" y="275" font-size="8" font-weight="600">Email</text> <text x="460" y="286" font-size="7" fill="#666">lumina45@gmail.com</text>
  <text x="448" y="305" font-size="8" fill="#0056d2">📞</text> <text x="460" y="305" font-size="8" font-weight="600">Phone</text> <text x="460" y="316" font-size="7" fill="#666">72214546 / 3199454</text>
  <text x="448" y="340" font-size="8" fill="#0056d2">📍</text> <text x="460" y="340" font-size="8" font-weight="600">Location</text> <text x="460" y="351" font-size="7" fill="#666">Old Mall, Shop 4.5</text>
  <text x="460" y="362" font-size="7" fill="#666">Palapye</text>
  <text x="448" y="385" font-size="8" fill="#0056d2">🕐</text> <text x="460" y="385" font-size="8" font-weight="600">Hours</text> <text x="460" y="396" font-size="7" fill="#666">Mon-Fri 09:00-18:00</text>
  <text x="460" y="407" font-size="7" fill="#666">Sat 10:00-14:00</text>
  
  <circle cx="460" cy="455" r="14" fill="#0056d2"/> <text x="460" y="460" text-anchor="middle" font-size="9" fill="white">f</text>
  <circle cx="495" cy="455" r="14" fill="#0056d2"/> <text x="495" y="460" text-anchor="middle" font-size="9" fill="white">t</text>
  <circle cx="530" cy="455" r="14" fill="#0056d2"/> <text x="530" y="460" text-anchor="middle" font-size="9" fill="white">in</text>
  <circle cx="565" cy="455" r="14" fill="#0056d2"/> <text x="565" y="460" text-anchor="middle" font-size="9" fill="white">ig</text>

  <!-- Right: Contact Form -->
  <rect x="605" y="195" width="160" height="295" rx="10" fill="white" stroke="#e0e0e0"/>
  <text x="685" y="220" text-anchor="middle" font-size="10" font-weight="700" fill="#0a2540">Send Us a Message</text>
  
  <text x="618" y="245" font-size="7" font-weight="600">Full Name</text>
  <rect x="615" y="250" width="140" height="26" rx="5" fill="white" stroke="#ccc"/>
  <text x="625" y="267" font-size="7" fill="#aaa">Enter your full name</text>
  
  <text x="618" y="290" font-size="7" font-weight="600">Email</text>
  <rect x="615" y="295" width="65" height="26" rx="5" fill="white" stroke="#ccc"/>
  <text x="622" y="312" font-size="6" fill="#aaa">you@example.com</text>
  <text x="690" y="290" font-size="7" font-weight="600">Phone</text>
  <rect x="690" y="295" width="65" height="26" rx="5" fill="white" stroke="#ccc"/>
  <text x="697" y="312" font-size="6" fill="#aaa">72214546</text>
  
  <text x="618" y="335" font-size="7" font-weight="600">Course Interested In</text>
  <rect x="615" y="340" width="140" height="26" rx="5" fill="white" stroke="#ccc"/>
  <text x="625" y="357" font-size="7" fill="#aaa">Select a course</text>

  <text x="618" y="375" font-size="7" font-weight="600">Message</text>
  <rect x="615" y="380" width="140" height="45" rx="5" fill="white" stroke="#ccc"/>
  <text x="625" y="400" font-size="7" fill="#aaa">Tell us your goals...</text>
  
  <rect x="615" y="435" width="140" height="28" rx="14" fill="#0056d2"/>
  <text x="685" y="454" text-anchor="middle" font-size="9" font-weight="600" fill="white">Send Message</text>

  <!-- Footer -->
  <rect x="430" y="505" width="340" height="60" rx="6" fill="#0a2540"/>
  <text x="600" y="530" text-anchor="middle" font-size="9" fill="#aaa">© 2026 Lumina Academy. All rights reserved.</text>
  <text x="600" y="548" text-anchor="middle" font-size="8" fill="#aaa">Let us illuminate your IT career · Palapye, Botswana</text>
  
  <!-- Legend -->
  <text x="400" y="1000" text-anchor="middle" font-size="11" font-weight="600" fill="#0a2540">All pages share: Sticky Navbar (top) | Consistent Footer (bottom)</text>
  <text x="400" y="1020" text-anchor="middle" font-size="10" fill="#888">Wireframes created for Lumina Academy — Web &amp; Multimedia Development Assignment</text>
</svg>